<svg xmlns="http://www.w3.org/2000/svg" xmlns:xlink="http://www.w3.org/1999/xlink" width="40" zoomAndPan="magnify" viewBox="0 0 30 30.000001" height="40" preserveAspectRatio="xMidYMid meet" version="1.0"><defs><g/><clipPath id="a47576dc1d"><path d="M 0.484375 0 L 29.515625 0 L 29.515625 29.03125 L 0.484375 29.03125 Z M 0.484375 0 " clip-rule="nonzero"/></clipPath><clipPath id="a664884984"><path d="M 18 10 L 29.515625 10 L 29.515625 17 L 18 17 Z M 18 10 " clip-rule="nonzero"/></clipPath></defs><g clip-path="url(#a47576dc1d)"><path fill="#ffffff" d="M 0.484375 0 L 29.515625 0 L 29.515625 29.03125 L 0.484375 29.03125 Z M 0.484375 0 " fill-opacity="1" fill-rule="nonzero"/><path fill="#ffffff" d="M 0.484375 0 L 29.515625 0 L 29.515625 29.03125 L 0.484375 29.03125 Z M 0.484375 0 " fill-opacity="1" fill-rule="nonzero"/></g><g fill="#1198d9" fill-opacity="1"><g transform="translate(0.48387, 16.498461)"><g><path d="M 9.125 0 L 6.625 0 L 5.28125 -1.59375 L 2.421875 -1.59375 L 2.421875 0 L 0.546875 0 L 0.546875 -3.078125 L 5.796875 -3.078125 C 6.085938 -3.078125 6.332031 -3.132812 6.53125 -3.25 C 6.726562 -3.375 6.828125 -3.546875 6.828125 -3.765625 C 6.828125 -3.992188 6.734375 -4.164062 6.546875 -4.28125 C 6.367188 -4.40625 6.117188 -4.46875 5.796875 -4.46875 L 0.546875 -4.46875 L 1.765625 -6.03125 L 5.640625 -6.03125 C 5.984375 -6.03125 6.335938 -6 6.703125 -5.9375 C 7.066406 -5.875 7.398438 -5.757812 7.703125 -5.59375 C 8.003906 -5.4375 8.253906 -5.21875 8.453125 -4.9375 C 8.648438 -4.664062 8.75 -4.3125 8.75 -3.875 C 8.75 -3.644531 8.710938 -3.421875 8.640625 -3.203125 C 8.566406 -2.992188 8.460938 -2.804688 8.328125 -2.640625 C 8.191406 -2.472656 8.023438 -2.328125 7.828125 -2.203125 C 7.628906 -2.085938 7.410156 -2.007812 7.171875 -1.96875 C 7.273438 -1.882812 7.390625 -1.78125 7.515625 -1.65625 C 7.640625 -1.539062 7.804688 -1.378906 8.015625 -1.171875 Z M 9.125 0 "/></g></g></g><g fill="#1198d9" fill-opacity="1"><g transform="translate(9.703482, 16.498461)"><g><path d="M 7.890625 0 L 6.03125 0 L 6.03125 -2.328125 L 2.4375 -2.328125 L 2.4375 0 L 0.5625 0 L 0.5625 -6.03125 L 2.4375 -6.03125 L 2.4375 -3.890625 L 6.03125 -3.890625 L 6.03125 -6.03125 L 7.890625 -6.03125 Z M 7.890625 0 "/></g></g></g><g clip-path="url(#a664884984)"><g fill="#1198d9" fill-opacity="1"><g transform="translate(18.166059, 16.498461)"><g><path d="M 4.734375 -3.78125 C 4.867188 -3.550781 4.984375 -3.347656 5.078125 -3.171875 C 5.179688 -2.992188 5.269531 -2.832031 5.34375 -2.6875 C 5.414062 -2.550781 5.476562 -2.425781 5.53125 -2.3125 C 5.59375 -2.195312 5.648438 -2.085938 5.703125 -1.984375 C 5.753906 -2.085938 5.804688 -2.195312 5.859375 -2.3125 C 5.921875 -2.425781 5.988281 -2.550781 6.0625 -2.6875 C 6.132812 -2.832031 6.21875 -2.988281 6.3125 -3.15625 C 6.414062 -3.332031 6.535156 -3.539062 6.671875 -3.78125 L 7.640625 -5.484375 C 7.742188 -5.679688 7.878906 -5.835938 8.046875 -5.953125 C 8.210938 -6.066406 8.414062 -6.125 8.65625 -6.125 C 8.894531 -6.125 9.109375 -6.054688 9.296875 -5.921875 C 9.484375 -5.785156 9.617188 -5.578125 9.703125 -5.296875 L 11.234375 0 L 9.375 0 L 8.8125 -2.09375 C 8.707031 -2.4375 8.625 -2.738281 8.5625 -3 C 8.5 -3.257812 8.441406 -3.515625 8.390625 -3.765625 C 8.285156 -3.546875 8.171875 -3.304688 8.046875 -3.046875 C 7.921875 -2.796875 7.757812 -2.476562 7.5625 -2.09375 L 6.75 -0.578125 C 6.664062 -0.429688 6.582031 -0.3125 6.5 -0.21875 C 6.425781 -0.132812 6.34375 -0.0664062 6.25 -0.015625 C 6.164062 0.0234375 6.078125 0.0507812 5.984375 0.0625 C 5.890625 0.0820312 5.785156 0.09375 5.671875 0.09375 C 5.554688 0.09375 5.453125 0.0820312 5.359375 0.0625 C 5.265625 0.0507812 5.171875 0.0234375 5.078125 -0.015625 C 4.992188 -0.0664062 4.910156 -0.132812 4.828125 -0.21875 C 4.753906 -0.3125 4.675781 -0.429688 4.59375 -0.578125 L 3.78125 -2.09375 C 3.675781 -2.300781 3.582031 -2.484375 3.5 -2.640625 C 3.414062 -2.804688 3.335938 -2.953125 3.265625 -3.078125 C 3.203125 -3.210938 3.144531 -3.332031 3.09375 -3.4375 C 3.039062 -3.550781 2.988281 -3.660156 2.9375 -3.765625 C 2.882812 -3.523438 2.828125 -3.269531 2.765625 -3 C 2.703125 -2.738281 2.625 -2.4375 2.53125 -2.09375 L 1.96875 0 L 0.140625 0 L 1.6875 -5.296875 C 1.78125 -5.578125 1.921875 -5.785156 2.109375 -5.921875 C 2.296875 -6.054688 2.507812 -6.125 2.75 -6.125 C 2.988281 -6.125 3.191406 -6.066406 3.359375 -5.953125 C 3.523438 -5.835938 3.660156 -5.679688 3.765625 -5.484375 Z M 4.734375 -3.78125 "/></g></g></g></g><g fill="#ea0909" fill-opacity="1"><g transform="translate(6.485459, 19.84417)"><g><path d="M 0.046875 -2.0625 L 1.921875 -2.0625 L 1.921875 -1.75 L 1.15625 -1.75 L 1.15625 0 L 0.828125 0 L 0.828125 -1.75 L 0.046875 -1.75 Z M 0.046875 -2.0625 "/></g></g></g><g fill="#ea0909" fill-opacity="1"><g transform="translate(8.461013, 19.84417)"><g><path d="M 1.640625 -0.21875 C 1.546875 -0.125 1.4375 -0.0546875 1.3125 -0.015625 C 1.195312 0.015625 1.082031 0.03125 0.96875 0.03125 C 0.84375 0.03125 0.722656 0.015625 0.609375 -0.015625 C 0.503906 -0.0546875 0.410156 -0.113281 0.328125 -0.1875 C 0.253906 -0.257812 0.195312 -0.34375 0.15625 -0.4375 C 0.113281 -0.539062 0.09375 -0.648438 0.09375 -0.765625 C 0.09375 -0.890625 0.113281 -1.003906 0.15625 -1.109375 C 0.195312 -1.210938 0.253906 -1.296875 0.328125 -1.359375 C 0.410156 -1.429688 0.503906 -1.488281 0.609375 -1.53125 C 0.710938 -1.570312 0.828125 -1.59375 0.953125 -1.59375 C 1.046875 -1.59375 1.132812 -1.578125 1.21875 -1.546875 C 1.300781 -1.523438 1.375 -1.492188 1.4375 -1.453125 C 1.507812 -1.410156 1.566406 -1.351562 1.609375 -1.28125 C 1.648438 -1.21875 1.671875 -1.144531 1.671875 -1.0625 C 1.671875 -0.976562 1.65625 -0.90625 1.625 -0.84375 C 1.59375 -0.789062 1.550781 -0.742188 1.5 -0.703125 C 1.445312 -0.671875 1.378906 -0.648438 1.296875 -0.640625 C 1.222656 -0.628906 1.140625 -0.625 1.046875 -0.625 L 0.421875 -0.625 C 0.453125 -0.507812 0.515625 -0.421875 0.609375 -0.359375 C 0.710938 -0.296875 0.832031 -0.265625 0.96875 -0.265625 C 1.039062 -0.265625 1.117188 -0.273438 1.203125 -0.296875 C 1.285156 -0.316406 1.363281 -0.359375 1.4375 -0.421875 Z M 1.046875 -0.90625 C 1.085938 -0.90625 1.128906 -0.90625 1.171875 -0.90625 C 1.210938 -0.90625 1.242188 -0.910156 1.265625 -0.921875 C 1.296875 -0.929688 1.316406 -0.945312 1.328125 -0.96875 C 1.347656 -1 1.359375 -1.03125 1.359375 -1.0625 C 1.359375 -1.101562 1.347656 -1.140625 1.328125 -1.171875 C 1.304688 -1.203125 1.273438 -1.222656 1.234375 -1.234375 C 1.203125 -1.253906 1.160156 -1.269531 1.109375 -1.28125 C 1.054688 -1.289062 1.003906 -1.296875 0.953125 -1.296875 C 0.816406 -1.296875 0.695312 -1.265625 0.59375 -1.203125 C 0.5 -1.140625 0.441406 -1.039062 0.421875 -0.90625 Z M 1.046875 -0.90625 "/></g></g></g><g fill="#ea0909" fill-opacity="1"><g transform="translate(10.256007, 19.84417)"><g><path d="M 0.953125 -0.265625 C 1.148438 -0.265625 1.320312 -0.332031 1.46875 -0.46875 L 1.65625 -0.25 C 1.550781 -0.144531 1.441406 -0.0703125 1.328125 -0.03125 C 1.210938 0.0078125 1.085938 0.03125 0.953125 0.03125 C 0.828125 0.03125 0.710938 0.015625 0.609375 -0.015625 C 0.503906 -0.0546875 0.410156 -0.113281 0.328125 -0.1875 C 0.253906 -0.257812 0.195312 -0.34375 0.15625 -0.4375 C 0.113281 -0.539062 0.09375 -0.65625 0.09375 -0.78125 C 0.09375 -0.90625 0.113281 -1.015625 0.15625 -1.109375 C 0.195312 -1.210938 0.253906 -1.296875 0.328125 -1.359375 C 0.410156 -1.429688 0.503906 -1.488281 0.609375 -1.53125 C 0.710938 -1.570312 0.828125 -1.59375 0.953125 -1.59375 C 1.085938 -1.59375 1.207031 -1.570312 1.3125 -1.53125 C 1.425781 -1.5 1.53125 -1.441406 1.625 -1.359375 L 1.4375 -1.125 C 1.363281 -1.1875 1.289062 -1.226562 1.21875 -1.25 C 1.144531 -1.28125 1.054688 -1.296875 0.953125 -1.296875 C 0.878906 -1.296875 0.804688 -1.285156 0.734375 -1.265625 C 0.671875 -1.242188 0.613281 -1.207031 0.5625 -1.15625 C 0.507812 -1.113281 0.46875 -1.0625 0.4375 -1 C 0.414062 -0.9375 0.40625 -0.863281 0.40625 -0.78125 C 0.40625 -0.695312 0.414062 -0.625 0.4375 -0.5625 C 0.46875 -0.5 0.507812 -0.441406 0.5625 -0.390625 C 0.613281 -0.347656 0.671875 -0.316406 0.734375 -0.296875 C 0.804688 -0.273438 0.878906 -0.265625 0.953125 -0.265625 Z M 0.953125 -0.265625 "/></g></g></g><g fill="#ea0909" fill-opacity="1"><g transform="translate(11.983733, 19.84417)"><g><path d="M 1 -1.296875 C 0.832031 -1.296875 0.703125 -1.242188 0.609375 -1.140625 C 0.515625 -1.046875 0.46875 -0.910156 0.46875 -0.734375 L 0.46875 0 L 0.15625 0 L 0.15625 -0.765625 C 0.15625 -0.878906 0.171875 -0.988281 0.203125 -1.09375 C 0.242188 -1.195312 0.300781 -1.285156 0.375 -1.359375 C 0.445312 -1.429688 0.535156 -1.488281 0.640625 -1.53125 C 0.742188 -1.570312 0.863281 -1.59375 1 -1.59375 C 1.132812 -1.59375 1.253906 -1.570312 1.359375 -1.53125 C 1.460938 -1.488281 1.546875 -1.429688 1.609375 -1.359375 C 1.679688 -1.285156 1.738281 -1.195312 1.78125 -1.09375 C 1.820312 -0.988281 1.84375 -0.878906 1.84375 -0.765625 L 1.84375 0 L 1.53125 0 L 1.53125 -0.734375 C 1.53125 -0.910156 1.484375 -1.046875 1.390625 -1.140625 C 1.296875 -1.242188 1.164062 -1.296875 1 -1.296875 Z M 1 -1.296875 "/></g></g></g><g fill="#ea0909" fill-opacity="1"><g transform="translate(13.976989, 19.84417)"><g><path d="M 0.09375 -0.78125 C 0.09375 -0.90625 0.113281 -1.015625 0.15625 -1.109375 C 0.195312 -1.210938 0.253906 -1.296875 0.328125 -1.359375 C 0.410156 -1.429688 0.503906 -1.488281 0.609375 -1.53125 C 0.710938 -1.570312 0.832031 -1.59375 0.96875 -1.59375 C 1.09375 -1.59375 1.207031 -1.570312 1.3125 -1.53125 C 1.414062 -1.488281 1.503906 -1.429688 1.578125 -1.359375 C 1.660156 -1.296875 1.722656 -1.210938 1.765625 -1.109375 C 1.804688 -1.015625 1.828125 -0.90625 1.828125 -0.78125 C 1.828125 -0.65625 1.804688 -0.539062 1.765625 -0.4375 C 1.722656 -0.34375 1.660156 -0.257812 1.578125 -0.1875 C 1.503906 -0.113281 1.414062 -0.0546875 1.3125 -0.015625 C 1.207031 0.015625 1.09375 0.03125 0.96875 0.03125 C 0.832031 0.03125 0.710938 0.015625 0.609375 -0.015625 C 0.503906 -0.0546875 0.410156 -0.113281 0.328125 -0.1875 C 0.253906 -0.257812 0.195312 -0.34375 0.15625 -0.4375 C 0.113281 -0.539062 0.09375 -0.65625 0.09375 -0.78125 Z M 1.515625 -0.78125 C 1.515625 -0.863281 1.5 -0.9375 1.46875 -1 C 1.445312 -1.0625 1.410156 -1.113281 1.359375 -1.15625 C 1.304688 -1.207031 1.242188 -1.242188 1.171875 -1.265625 C 1.109375 -1.285156 1.039062 -1.296875 0.96875 -1.296875 C 0.882812 -1.296875 0.804688 -1.285156 0.734375 -1.265625 C 0.671875 -1.242188 0.613281 -1.207031 0.5625 -1.15625 C 0.507812 -1.113281 0.46875 -1.0625 0.4375 -1 C 0.414062 -0.9375 0.40625 -0.863281 0.40625 -0.78125 C 0.40625 -0.695312 0.414062 -0.625 0.4375 -0.5625 C 0.46875 -0.5 0.507812 -0.441406 0.5625 -0.390625 C 0.613281 -0.347656 0.671875 -0.316406 0.734375 -0.296875 C 0.804688 -0.273438 0.882812 -0.265625 0.96875 -0.265625 C 1.039062 -0.265625 1.109375 -0.273438 1.171875 -0.296875 C 1.242188 -0.316406 1.304688 -0.347656 1.359375 -0.390625 C 1.410156 -0.441406 1.445312 -0.5 1.46875 -0.5625 C 1.5 -0.625 1.515625 -0.695312 1.515625 -0.78125 Z M 1.515625 -0.78125 "/></g></g></g><g fill="#ea0909" fill-opacity="1"><g transform="translate(15.895897, 19.84417)"><g><path d="M 1.078125 -0.03125 C 1.023438 -0.0078125 0.972656 0.00390625 0.921875 0.015625 C 0.867188 0.0234375 0.820312 0.03125 0.78125 0.03125 C 0.664062 0.03125 0.566406 0.015625 0.484375 -0.015625 C 0.398438 -0.0546875 0.332031 -0.109375 0.28125 -0.171875 C 0.238281 -0.234375 0.207031 -0.304688 0.1875 -0.390625 C 0.164062 -0.484375 0.15625 -0.582031 0.15625 -0.6875 L 0.15625 -2.0625 L 0.453125 -2.0625 L 0.453125 -0.703125 C 0.453125 -0.554688 0.476562 -0.445312 0.53125 -0.375 C 0.582031 -0.300781 0.664062 -0.265625 0.78125 -0.265625 C 0.8125 -0.265625 0.84375 -0.265625 0.875 -0.265625 C 0.914062 -0.273438 0.957031 -0.285156 1 -0.296875 Z M 1.078125 -0.03125 "/></g></g></g><g fill="#ea0909" fill-opacity="1"><g transform="translate(16.979265, 19.84417)"><g><path d="M 0.09375 -0.78125 C 0.09375 -0.90625 0.113281 -1.015625 0.15625 -1.109375 C 0.195312 -1.210938 0.253906 -1.296875 0.328125 -1.359375 C 0.410156 -1.429688 0.503906 -1.488281 0.609375 -1.53125 C 0.710938 -1.570312 0.832031 -1.59375 0.96875 -1.59375 C 1.09375 -1.59375 1.207031 -1.570312 1.3125 -1.53125 C 1.414062 -1.488281 1.503906 -1.429688 1.578125 -1.359375 C 1.660156 -1.296875 1.722656 -1.210938 1.765625 -1.109375 C 1.804688 -1.015625 1.828125 -0.90625 1.828125 -0.78125 C 1.828125 -0.65625 1.804688 -0.539062 1.765625 -0.4375 C 1.722656 -0.34375 1.660156 -0.257812 1.578125 -0.1875 C 1.503906 -0.113281 1.414062 -0.0546875 1.3125 -0.015625 C 1.207031 0.015625 1.09375 0.03125 0.96875 0.03125 C 0.832031 0.03125 0.710938 0.015625 0.609375 -0.015625 C 0.503906 -0.0546875 0.410156 -0.113281 0.328125 -0.1875 C 0.253906 -0.257812 0.195312 -0.34375 0.15625 -0.4375 C 0.113281 -0.539062 0.09375 -0.65625 0.09375 -0.78125 Z M 1.515625 -0.78125 C 1.515625 -0.863281 1.5 -0.9375 1.46875 -1 C 1.445312 -1.0625 1.410156 -1.113281 1.359375 -1.15625 C 1.304688 -1.207031 1.242188 -1.242188 1.171875 -1.265625 C 1.109375 -1.285156 1.039062 -1.296875 0.96875 -1.296875 C 0.882812 -1.296875 0.804688 -1.285156 0.734375 -1.265625 C 0.671875 -1.242188 0.613281 -1.207031 0.5625 -1.15625 C 0.507812 -1.113281 0.46875 -1.0625 0.4375 -1 C 0.414062 -0.9375 0.40625 -0.863281 0.40625 -0.78125 C 0.40625 -0.695312 0.414062 -0.625 0.4375 -0.5625 C 0.46875 -0.5 0.507812 -0.441406 0.5625 -0.390625 C 0.613281 -0.347656 0.671875 -0.316406 0.734375 -0.296875 C 0.804688 -0.273438 0.882812 -0.265625 0.96875 -0.265625 C 1.039062 -0.265625 1.109375 -0.273438 1.171875 -0.296875 C 1.242188 -0.316406 1.304688 -0.347656 1.359375 -0.390625 C 1.410156 -0.441406 1.445312 -0.5 1.46875 -0.5625 C 1.5 -0.625 1.515625 -0.695312 1.515625 -0.78125 Z M 1.515625 -0.78125 "/></g></g></g><g fill="#ea0909" fill-opacity="1"><g transform="translate(18.898173, 19.84417)"><g><path d="M 0.40625 -0.78125 C 0.40625 -0.695312 0.414062 -0.625 0.4375 -0.5625 C 0.46875 -0.5 0.507812 -0.445312 0.5625 -0.40625 C 0.613281 -0.363281 0.671875 -0.328125 0.734375 -0.296875 C 0.804688 -0.273438 0.882812 -0.265625 0.96875 -0.265625 C 1.039062 -0.265625 1.109375 -0.273438 1.171875 -0.296875 C 1.242188 -0.316406 1.300781 -0.347656 1.34375 -0.390625 C 1.394531 -0.429688 1.4375 -0.484375 1.46875 -0.546875 C 1.5 -0.617188 1.515625 -0.695312 1.515625 -0.78125 C 1.515625 -0.851562 1.5 -0.921875 1.46875 -0.984375 C 1.4375 -1.054688 1.394531 -1.113281 1.34375 -1.15625 C 1.300781 -1.207031 1.242188 -1.242188 1.171875 -1.265625 C 1.109375 -1.285156 1.039062 -1.296875 0.96875 -1.296875 C 0.882812 -1.296875 0.804688 -1.285156 0.734375 -1.265625 C 0.671875 -1.242188 0.613281 -1.207031 0.5625 -1.15625 C 0.507812 -1.113281 0.46875 -1.0625 0.4375 -1 C 0.414062 -0.9375 0.40625 -0.863281 0.40625 -0.78125 Z M 0.953125 0.265625 C 1.023438 0.265625 1.09375 0.253906 1.15625 0.234375 C 1.226562 0.222656 1.285156 0.195312 1.328125 0.15625 C 1.378906 0.113281 1.421875 0.0625 1.453125 0 C 1.484375 -0.0625 1.503906 -0.140625 1.515625 -0.234375 C 1.453125 -0.148438 1.367188 -0.0859375 1.265625 -0.046875 C 1.171875 -0.015625 1.066406 0 0.953125 0 C 0.816406 0 0.695312 -0.015625 0.59375 -0.046875 C 0.488281 -0.0859375 0.394531 -0.140625 0.3125 -0.203125 C 0.238281 -0.273438 0.179688 -0.359375 0.140625 -0.453125 C 0.109375 -0.554688 0.09375 -0.664062 0.09375 -0.78125 C 0.09375 -0.90625 0.113281 -1.015625 0.15625 -1.109375 C 0.195312 -1.210938 0.253906 -1.300781 0.328125 -1.375 C 0.410156 -1.445312 0.503906 -1.5 0.609375 -1.53125 C 0.710938 -1.570312 0.832031 -1.59375 0.96875 -1.59375 C 1.082031 -1.59375 1.191406 -1.570312 1.296875 -1.53125 C 1.410156 -1.5 1.503906 -1.445312 1.578125 -1.375 C 1.648438 -1.300781 1.707031 -1.207031 1.75 -1.09375 C 1.800781 -0.976562 1.828125 -0.847656 1.828125 -0.703125 L 1.828125 -0.34375 C 1.828125 -0.207031 1.804688 -0.0859375 1.765625 0.015625 C 1.734375 0.128906 1.679688 0.222656 1.609375 0.296875 C 1.535156 0.378906 1.441406 0.441406 1.328125 0.484375 C 1.222656 0.535156 1.097656 0.5625 0.953125 0.5625 C 0.878906 0.5625 0.804688 0.550781 0.734375 0.53125 C 0.660156 0.519531 0.585938 0.5 0.515625 0.46875 C 0.441406 0.4375 0.375 0.394531 0.3125 0.34375 C 0.25 0.289062 0.191406 0.222656 0.140625 0.140625 L 0.40625 0.015625 C 0.476562 0.109375 0.554688 0.171875 0.640625 0.203125 C 0.722656 0.242188 0.828125 0.265625 0.953125 0.265625 Z M 0.953125 0.265625 "/></g></g></g><g fill="#ea0909" fill-opacity="1"><g transform="translate(20.877267, 19.84417)"><g><path d="M 0.484375 -1.5625 L 0.484375 0 L 0.171875 0 L 0.171875 -1.5625 Z M 0.484375 -2.09375 L 0.484375 -1.78125 L 0.171875 -1.78125 L 0.171875 -2.09375 Z M 0.484375 -2.09375 "/></g></g></g><g fill="#ea0909" fill-opacity="1"><g transform="translate(21.535786, 19.84417)"><g><path d="M 1.515625 -0.203125 C 1.453125 -0.128906 1.367188 -0.0703125 1.265625 -0.03125 C 1.171875 0.0078125 1.0625 0.03125 0.9375 0.03125 C 0.8125 0.03125 0.695312 0.015625 0.59375 -0.015625 C 0.488281 -0.0546875 0.398438 -0.113281 0.328125 -0.1875 C 0.253906 -0.257812 0.195312 -0.34375 0.15625 -0.4375 C 0.113281 -0.539062 0.09375 -0.65625 0.09375 -0.78125 C 0.09375 -0.90625 0.113281 -1.015625 0.15625 -1.109375 C 0.195312 -1.210938 0.253906 -1.300781 0.328125 -1.375 C 0.410156 -1.445312 0.503906 -1.5 0.609375 -1.53125 C 0.710938 -1.570312 0.828125 -1.59375 0.953125 -1.59375 C 1.078125 -1.59375 1.191406 -1.570312 1.296875 -1.53125 C 1.398438 -1.5 1.488281 -1.445312 1.5625 -1.375 C 1.644531 -1.300781 1.707031 -1.207031 1.75 -1.09375 C 1.800781 -0.976562 1.828125 -0.851562 1.828125 -0.71875 L 1.828125 0 L 1.515625 0 Z M 0.40625 -0.78125 C 0.40625 -0.695312 0.414062 -0.625 0.4375 -0.5625 C 0.46875 -0.5 0.507812 -0.441406 0.5625 -0.390625 C 0.613281 -0.347656 0.671875 -0.316406 0.734375 -0.296875 C 0.804688 -0.273438 0.878906 -0.265625 0.953125 -0.265625 C 1.035156 -0.265625 1.109375 -0.273438 1.171875 -0.296875 C 1.234375 -0.316406 1.289062 -0.347656 1.34375 -0.390625 C 1.394531 -0.429688 1.4375 -0.484375 1.46875 -0.546875 C 1.5 -0.617188 1.515625 -0.695312 1.515625 -0.78125 C 1.515625 -0.851562 1.5 -0.921875 1.46875 -0.984375 C 1.4375 -1.054688 1.394531 -1.113281 1.34375 -1.15625 C 1.289062 -1.207031 1.234375 -1.242188 1.171875 -1.265625 C 1.109375 -1.285156 1.035156 -1.296875 0.953125 -1.296875 C 0.878906 -1.296875 0.804688 -1.285156 0.734375 -1.265625 C 0.671875 -1.242188 0.613281 -1.207031 0.5625 -1.15625 C 0.507812 -1.113281 0.46875 -1.0625 0.4375 -1 C 0.414062 -0.9375 0.40625 -0.863281 0.40625 -0.78125 Z M 0.40625 -0.78125 "/></g></g></g></svg>