<svg xmlns="http://www.w3.org/2000/svg" xmlns:xlink="http://www.w3.org/1999/xlink" width="200" zoomAndPan="magnify" viewBox="0 0 150 149.999998" height="200" preserveAspectRatio="xMidYMid meet" version="1.0"><defs><g/><clipPath id="dbadb53d7e"><path d="M 39.476562 45.300781 L 59.136719 45.300781 L 59.136719 64.960938 L 39.476562 64.960938 Z M 39.476562 45.300781 " clip-rule="nonzero"/></clipPath><clipPath id="19dd2b077f"><path d="M 57.859375 64.960938 L 40.753906 64.960938 C 40.050781 64.960938 39.476562 64.386719 39.476562 63.679688 L 39.476562 46.578125 C 39.476562 45.875 40.050781 45.300781 40.753906 45.300781 L 57.859375 45.300781 C 58.5625 45.300781 59.136719 45.875 59.136719 46.578125 L 59.136719 63.679688 C 59.136719 64.386719 58.5625 64.960938 57.859375 64.960938 Z M 57.859375 64.960938 " clip-rule="nonzero"/></clipPath><clipPath id="b94ba8db56"><path d="M 15.277344 45.4375 L 34.9375 45.4375 L 34.9375 65.097656 L 15.277344 65.097656 Z M 15.277344 45.4375 " clip-rule="nonzero"/></clipPath><clipPath id="8d2ec92950"><path d="M 33.660156 65.097656 L 16.554688 65.097656 C 15.851562 65.097656 15.277344 64.523438 15.277344 63.820312 L 15.277344 46.71875 C 15.277344 46.011719 15.851562 45.4375 16.554688 45.4375 L 33.660156 45.4375 C 34.363281 45.4375 34.9375 46.011719 34.9375 46.71875 L 34.9375 63.820312 C 34.9375 64.523438 34.363281 65.097656 33.660156 65.097656 Z M 33.660156 65.097656 " clip-rule="nonzero"/></clipPath><clipPath id="94e5ced4ed"><path d="M 15 70.527344 L 34.660156 70.527344 L 34.660156 90.1875 L 15 90.1875 Z M 15 70.527344 " clip-rule="nonzero"/></clipPath><clipPath id="a3dc4e6735"><path d="M 33.382812 90.1875 L 16.277344 90.1875 C 15.574219 90.1875 15 89.613281 15 88.90625 L 15 71.804688 C 15 71.101562 15.574219 70.527344 16.277344 70.527344 L 33.382812 70.527344 C 34.085938 70.527344 34.660156 71.101562 34.660156 71.804688 L 34.660156 88.90625 C 34.660156 89.613281 34.085938 90.1875 33.382812 90.1875 Z M 33.382812 90.1875 " clip-rule="nonzero"/></clipPath></defs><g fill="#1198d9" fill-opacity="1"><g transform="translate(37.298444, 89.664852)"><g><path d="M 30.6875 0 L 22.296875 0 L 17.765625 -5.375 L 8.125 -5.375 L 8.125 0 L 1.84375 0 L 1.84375 -10.375 L 19.5 -10.375 C 20.46875 -10.375 21.285156 -10.570312 21.953125 -10.96875 C 22.617188 -11.375 22.953125 -11.929688 22.953125 -12.640625 C 22.953125 -13.429688 22.648438 -14.023438 22.046875 -14.421875 C 21.441406 -14.816406 20.59375 -15.015625 19.5 -15.015625 L 1.84375 -15.015625 L 5.9375 -20.296875 L 18.984375 -20.296875 C 20.140625 -20.296875 21.332031 -20.1875 22.5625 -19.96875 C 23.800781 -19.757812 24.925781 -19.378906 25.9375 -18.828125 C 26.945312 -18.285156 27.78125 -17.546875 28.4375 -16.609375 C 29.09375 -15.679688 29.421875 -14.492188 29.421875 -13.046875 C 29.421875 -12.253906 29.296875 -11.503906 29.046875 -10.796875 C 28.804688 -10.085938 28.457031 -9.445312 28 -8.875 C 27.550781 -8.3125 27 -7.832031 26.34375 -7.4375 C 25.6875 -7.050781 24.941406 -6.773438 24.109375 -6.609375 C 24.453125 -6.347656 24.835938 -6.015625 25.265625 -5.609375 C 25.691406 -5.203125 26.257812 -4.644531 26.96875 -3.9375 Z M 30.6875 0 "/></g></g></g><g fill="#1198d9" fill-opacity="1"><g transform="translate(68.324978, 89.664852)"><g><path d="M 26.53125 0 L 20.296875 0 L 20.296875 -7.828125 L 8.21875 -7.828125 L 8.21875 0 L 1.90625 0 L 1.90625 -20.296875 L 8.21875 -20.296875 L 8.21875 -13.109375 L 20.296875 -13.109375 L 20.296875 -20.296875 L 26.53125 -20.296875 Z M 26.53125 0 "/></g></g></g><g fill="#1198d9" fill-opacity="1"><g transform="translate(96.803881, 89.664852)"><g><path d="M 15.921875 -12.734375 C 16.367188 -11.953125 16.757812 -11.257812 17.09375 -10.65625 C 17.425781 -10.0625 17.71875 -9.53125 17.96875 -9.0625 C 18.21875 -8.601562 18.4375 -8.179688 18.625 -7.796875 C 18.820312 -7.410156 19.015625 -7.035156 19.203125 -6.671875 C 19.359375 -7.035156 19.53125 -7.40625 19.71875 -7.78125 C 19.914062 -8.15625 20.140625 -8.578125 20.390625 -9.046875 C 20.648438 -9.523438 20.945312 -10.054688 21.28125 -10.640625 C 21.613281 -11.234375 22 -11.921875 22.4375 -12.703125 L 25.6875 -18.46875 C 26.050781 -19.113281 26.507812 -19.632812 27.0625 -20.03125 C 27.625 -20.425781 28.316406 -20.625 29.140625 -20.625 C 29.929688 -20.625 30.644531 -20.394531 31.28125 -19.9375 C 31.914062 -19.488281 32.375 -18.785156 32.65625 -17.828125 L 37.78125 0 L 31.546875 0 L 29.625 -7.0625 C 29.300781 -8.21875 29.03125 -9.226562 28.8125 -10.09375 C 28.59375 -10.96875 28.398438 -11.816406 28.234375 -12.640625 C 27.890625 -11.929688 27.503906 -11.144531 27.078125 -10.28125 C 26.660156 -9.425781 26.109375 -8.34375 25.421875 -7.03125 L 22.6875 -1.9375 C 22.425781 -1.4375 22.15625 -1.035156 21.875 -0.734375 C 21.601562 -0.441406 21.328125 -0.210938 21.046875 -0.046875 C 20.765625 0.109375 20.460938 0.207031 20.140625 0.25 C 19.816406 0.300781 19.460938 0.328125 19.078125 0.328125 C 18.691406 0.328125 18.335938 0.300781 18.015625 0.25 C 17.691406 0.207031 17.390625 0.109375 17.109375 -0.046875 C 16.828125 -0.210938 16.546875 -0.441406 16.265625 -0.734375 C 15.992188 -1.035156 15.726562 -1.4375 15.46875 -1.9375 L 12.734375 -7.0625 C 12.367188 -7.75 12.046875 -8.363281 11.765625 -8.90625 C 11.484375 -9.457031 11.222656 -9.953125 10.984375 -10.390625 C 10.753906 -10.828125 10.550781 -11.222656 10.375 -11.578125 C 10.207031 -11.941406 10.046875 -12.296875 9.890625 -12.640625 C 9.722656 -11.835938 9.53125 -10.992188 9.3125 -10.109375 C 9.09375 -9.234375 8.828125 -8.21875 8.515625 -7.0625 L 6.609375 0 L 0.453125 0 L 5.703125 -17.828125 C 5.984375 -18.785156 6.445312 -19.488281 7.09375 -19.9375 C 7.738281 -20.394531 8.457031 -20.625 9.25 -20.625 C 10.0625 -20.625 10.742188 -20.429688 11.296875 -20.046875 C 11.847656 -19.660156 12.304688 -19.132812 12.671875 -18.46875 Z M 15.921875 -12.734375 "/></g></g></g><g clip-path="url(#dbadb53d7e)"><g clip-path="url(#19dd2b077f)"><path fill="#aacf49" d="M 39.476562 45.300781 L 59.136719 45.300781 L 59.136719 64.960938 L 39.476562 64.960938 Z M 39.476562 45.300781 " fill-opacity="1" fill-rule="nonzero"/></g></g><g clip-path="url(#b94ba8db56)"><g clip-path="url(#8d2ec92950)"><path fill="#1198d9" d="M 15.277344 45.4375 L 34.9375 45.4375 L 34.9375 65.097656 L 15.277344 65.097656 Z M 15.277344 45.4375 " fill-opacity="1" fill-rule="nonzero"/></g></g><g clip-path="url(#94e5ced4ed)"><g clip-path="url(#a3dc4e6735)"><path fill="#ec3237" d="M 15 70.527344 L 34.660156 70.527344 L 34.660156 90.1875 L 15 90.1875 Z M 15 70.527344 " fill-opacity="1" fill-rule="nonzero"/></g></g><g fill="#ea0909" fill-opacity="1"><g transform="translate(77.687253, 101.053336)"><g><path d="M 0.171875 -6.9375 L 6.46875 -6.9375 L 6.46875 -5.90625 L 3.859375 -5.90625 L 3.859375 0 L 2.796875 0 L 2.796875 -5.90625 L 0.171875 -5.90625 Z M 0.171875 -6.9375 "/></g></g></g><g fill="#ea0909" fill-opacity="1"><g transform="translate(84.335538, 101.053336)"><g><path d="M 5.515625 -0.734375 C 5.191406 -0.429688 4.832031 -0.210938 4.4375 -0.078125 C 4.039062 0.046875 3.640625 0.109375 3.234375 0.109375 C 2.816406 0.109375 2.425781 0.046875 2.0625 -0.078125 C 1.707031 -0.210938 1.398438 -0.394531 1.140625 -0.625 C 0.878906 -0.863281 0.671875 -1.148438 0.515625 -1.484375 C 0.367188 -1.816406 0.296875 -2.1875 0.296875 -2.59375 C 0.296875 -3.007812 0.367188 -3.382812 0.515625 -3.71875 C 0.660156 -4.0625 0.863281 -4.351562 1.125 -4.59375 C 1.382812 -4.832031 1.691406 -5.019531 2.046875 -5.15625 C 2.398438 -5.289062 2.785156 -5.359375 3.203125 -5.359375 C 3.503906 -5.359375 3.800781 -5.316406 4.09375 -5.234375 C 4.382812 -5.148438 4.640625 -5.03125 4.859375 -4.875 C 5.085938 -4.726562 5.269531 -4.546875 5.40625 -4.328125 C 5.550781 -4.109375 5.625 -3.863281 5.625 -3.59375 C 5.625 -3.300781 5.570312 -3.054688 5.46875 -2.859375 C 5.363281 -2.671875 5.21875 -2.519531 5.03125 -2.40625 C 4.84375 -2.289062 4.617188 -2.207031 4.359375 -2.15625 C 4.109375 -2.113281 3.828125 -2.09375 3.515625 -2.09375 L 1.4375 -2.09375 C 1.539062 -1.707031 1.753906 -1.40625 2.078125 -1.1875 C 2.410156 -0.976562 2.804688 -0.875 3.265625 -0.875 C 3.503906 -0.875 3.765625 -0.910156 4.046875 -0.984375 C 4.328125 -1.054688 4.582031 -1.203125 4.8125 -1.421875 Z M 3.515625 -3.03125 C 3.660156 -3.03125 3.796875 -3.035156 3.921875 -3.046875 C 4.054688 -3.054688 4.171875 -3.078125 4.265625 -3.109375 C 4.359375 -3.148438 4.4375 -3.207031 4.5 -3.28125 C 4.5625 -3.351562 4.59375 -3.457031 4.59375 -3.59375 C 4.59375 -3.726562 4.550781 -3.84375 4.46875 -3.9375 C 4.382812 -4.039062 4.28125 -4.125 4.15625 -4.1875 C 4.03125 -4.25 3.882812 -4.296875 3.71875 -4.328125 C 3.5625 -4.359375 3.394531 -4.375 3.21875 -4.375 C 2.757812 -4.375 2.363281 -4.257812 2.03125 -4.03125 C 1.695312 -3.8125 1.484375 -3.476562 1.390625 -3.03125 Z M 3.515625 -3.03125 "/></g></g></g><g fill="#ea0909" fill-opacity="1"><g transform="translate(90.376187, 101.053336)"><g><path d="M 3.203125 -0.875 C 3.867188 -0.875 4.441406 -1.101562 4.921875 -1.5625 L 5.578125 -0.84375 C 5.222656 -0.5 4.851562 -0.253906 4.46875 -0.109375 C 4.09375 0.0351562 3.671875 0.109375 3.203125 0.109375 C 2.785156 0.109375 2.398438 0.046875 2.046875 -0.078125 C 1.691406 -0.210938 1.382812 -0.398438 1.125 -0.640625 C 0.863281 -0.890625 0.660156 -1.179688 0.515625 -1.515625 C 0.367188 -1.847656 0.296875 -2.21875 0.296875 -2.625 C 0.296875 -3.03125 0.367188 -3.398438 0.515625 -3.734375 C 0.660156 -4.066406 0.863281 -4.351562 1.125 -4.59375 C 1.382812 -4.832031 1.691406 -5.019531 2.046875 -5.15625 C 2.398438 -5.289062 2.785156 -5.359375 3.203125 -5.359375 C 3.660156 -5.359375 4.070312 -5.296875 4.4375 -5.171875 C 4.800781 -5.046875 5.144531 -4.847656 5.46875 -4.578125 L 4.828125 -3.796875 C 4.578125 -3.992188 4.328125 -4.140625 4.078125 -4.234375 C 3.828125 -4.328125 3.535156 -4.375 3.203125 -4.375 C 2.941406 -4.375 2.695312 -4.332031 2.46875 -4.25 C 2.25 -4.175781 2.054688 -4.066406 1.890625 -3.921875 C 1.722656 -3.773438 1.585938 -3.59375 1.484375 -3.375 C 1.390625 -3.15625 1.34375 -2.90625 1.34375 -2.625 C 1.34375 -2.34375 1.390625 -2.09375 1.484375 -1.875 C 1.585938 -1.65625 1.722656 -1.46875 1.890625 -1.3125 C 2.054688 -1.164062 2.25 -1.054688 2.46875 -0.984375 C 2.695312 -0.910156 2.941406 -0.875 3.203125 -0.875 Z M 3.203125 -0.875 "/></g></g></g><g fill="#ea0909" fill-opacity="1"><g transform="translate(96.19046, 101.053336)"><g><path d="M 3.359375 -4.375 C 2.785156 -4.375 2.34375 -4.207031 2.03125 -3.875 C 1.71875 -3.550781 1.5625 -3.085938 1.5625 -2.484375 L 1.5625 0 L 0.53125 0 L 0.53125 -2.546875 C 0.53125 -2.953125 0.59375 -3.328125 0.71875 -3.671875 C 0.851562 -4.015625 1.039062 -4.3125 1.28125 -4.5625 C 1.519531 -4.8125 1.8125 -5.003906 2.15625 -5.140625 C 2.507812 -5.285156 2.910156 -5.359375 3.359375 -5.359375 C 3.804688 -5.359375 4.203125 -5.285156 4.546875 -5.140625 C 4.898438 -5.003906 5.195312 -4.8125 5.4375 -4.5625 C 5.675781 -4.3125 5.859375 -4.015625 5.984375 -3.671875 C 6.109375 -3.328125 6.171875 -2.953125 6.171875 -2.546875 L 6.171875 0 L 5.15625 0 L 5.15625 -2.484375 C 5.15625 -3.085938 5 -3.550781 4.6875 -3.875 C 4.375 -4.207031 3.929688 -4.375 3.359375 -4.375 Z M 3.359375 -4.375 "/></g></g></g><g fill="#ea0909" fill-opacity="1"><g transform="translate(102.898317, 101.053336)"><g><path d="M 0.296875 -2.625 C 0.296875 -3.03125 0.367188 -3.398438 0.515625 -3.734375 C 0.660156 -4.066406 0.863281 -4.351562 1.125 -4.59375 C 1.394531 -4.832031 1.707031 -5.019531 2.0625 -5.15625 C 2.414062 -5.289062 2.804688 -5.359375 3.234375 -5.359375 C 3.648438 -5.359375 4.035156 -5.289062 4.390625 -5.15625 C 4.753906 -5.019531 5.066406 -4.832031 5.328125 -4.59375 C 5.585938 -4.351562 5.789062 -4.066406 5.9375 -3.734375 C 6.082031 -3.398438 6.15625 -3.03125 6.15625 -2.625 C 6.15625 -2.21875 6.082031 -1.847656 5.9375 -1.515625 C 5.789062 -1.179688 5.585938 -0.890625 5.328125 -0.640625 C 5.066406 -0.398438 4.753906 -0.210938 4.390625 -0.078125 C 4.035156 0.046875 3.648438 0.109375 3.234375 0.109375 C 2.804688 0.109375 2.414062 0.046875 2.0625 -0.078125 C 1.707031 -0.210938 1.394531 -0.398438 1.125 -0.640625 C 0.863281 -0.890625 0.660156 -1.179688 0.515625 -1.515625 C 0.367188 -1.847656 0.296875 -2.21875 0.296875 -2.625 Z M 5.109375 -2.625 C 5.109375 -2.90625 5.054688 -3.15625 4.953125 -3.375 C 4.859375 -3.59375 4.726562 -3.773438 4.5625 -3.921875 C 4.394531 -4.066406 4.195312 -4.175781 3.96875 -4.25 C 3.738281 -4.332031 3.492188 -4.375 3.234375 -4.375 C 2.972656 -4.375 2.726562 -4.332031 2.5 -4.25 C 2.269531 -4.175781 2.066406 -4.066406 1.890625 -3.921875 C 1.722656 -3.773438 1.585938 -3.59375 1.484375 -3.375 C 1.390625 -3.15625 1.34375 -2.90625 1.34375 -2.625 C 1.34375 -2.34375 1.390625 -2.09375 1.484375 -1.875 C 1.585938 -1.65625 1.722656 -1.46875 1.890625 -1.3125 C 2.066406 -1.164062 2.269531 -1.054688 2.5 -0.984375 C 2.726562 -0.910156 2.972656 -0.875 3.234375 -0.875 C 3.492188 -0.875 3.738281 -0.910156 3.96875 -0.984375 C 4.195312 -1.054688 4.394531 -1.164062 4.5625 -1.3125 C 4.726562 -1.46875 4.859375 -1.65625 4.953125 -1.875 C 5.054688 -2.09375 5.109375 -2.34375 5.109375 -2.625 Z M 5.109375 -2.625 "/></g></g></g><g fill="#ea0909" fill-opacity="1"><g transform="translate(109.355969, 101.053336)"><g><path d="M 3.640625 -0.09375 C 3.460938 -0.03125 3.285156 0.0078125 3.109375 0.03125 C 2.941406 0.0625 2.785156 0.078125 2.640625 0.078125 C 2.234375 0.078125 1.894531 0.0195312 1.625 -0.09375 C 1.351562 -0.207031 1.132812 -0.367188 0.96875 -0.578125 C 0.800781 -0.785156 0.679688 -1.035156 0.609375 -1.328125 C 0.546875 -1.628906 0.515625 -1.960938 0.515625 -2.328125 L 0.515625 -6.9375 L 1.53125 -6.9375 L 1.53125 -2.34375 C 1.53125 -1.875 1.613281 -1.507812 1.78125 -1.25 C 1.945312 -1 2.222656 -0.875 2.609375 -0.875 C 2.722656 -0.875 2.835938 -0.882812 2.953125 -0.90625 C 3.078125 -0.925781 3.207031 -0.957031 3.34375 -1 Z M 3.640625 -0.09375 "/></g></g></g><g fill="#ea0909" fill-opacity="1"><g transform="translate(113.001802, 101.053336)"><g><path d="M 0.296875 -2.625 C 0.296875 -3.03125 0.367188 -3.398438 0.515625 -3.734375 C 0.660156 -4.066406 0.863281 -4.351562 1.125 -4.59375 C 1.394531 -4.832031 1.707031 -5.019531 2.0625 -5.15625 C 2.414062 -5.289062 2.804688 -5.359375 3.234375 -5.359375 C 3.648438 -5.359375 4.035156 -5.289062 4.390625 -5.15625 C 4.753906 -5.019531 5.066406 -4.832031 5.328125 -4.59375 C 5.585938 -4.351562 5.789062 -4.066406 5.9375 -3.734375 C 6.082031 -3.398438 6.15625 -3.03125 6.15625 -2.625 C 6.15625 -2.21875 6.082031 -1.847656 5.9375 -1.515625 C 5.789062 -1.179688 5.585938 -0.890625 5.328125 -0.640625 C 5.066406 -0.398438 4.753906 -0.210938 4.390625 -0.078125 C 4.035156 0.046875 3.648438 0.109375 3.234375 0.109375 C 2.804688 0.109375 2.414062 0.046875 2.0625 -0.078125 C 1.707031 -0.210938 1.394531 -0.398438 1.125 -0.640625 C 0.863281 -0.890625 0.660156 -1.179688 0.515625 -1.515625 C 0.367188 -1.847656 0.296875 -2.21875 0.296875 -2.625 Z M 5.109375 -2.625 C 5.109375 -2.90625 5.054688 -3.15625 4.953125 -3.375 C 4.859375 -3.59375 4.726562 -3.773438 4.5625 -3.921875 C 4.394531 -4.066406 4.195312 -4.175781 3.96875 -4.25 C 3.738281 -4.332031 3.492188 -4.375 3.234375 -4.375 C 2.972656 -4.375 2.726562 -4.332031 2.5 -4.25 C 2.269531 -4.175781 2.066406 -4.066406 1.890625 -3.921875 C 1.722656 -3.773438 1.585938 -3.59375 1.484375 -3.375 C 1.390625 -3.15625 1.34375 -2.90625 1.34375 -2.625 C 1.34375 -2.34375 1.390625 -2.09375 1.484375 -1.875 C 1.585938 -1.65625 1.722656 -1.46875 1.890625 -1.3125 C 2.066406 -1.164062 2.269531 -1.054688 2.5 -0.984375 C 2.726562 -0.910156 2.972656 -0.875 3.234375 -0.875 C 3.492188 -0.875 3.738281 -0.910156 3.96875 -0.984375 C 4.195312 -1.054688 4.394531 -1.164062 4.5625 -1.3125 C 4.726562 -1.46875 4.859375 -1.65625 4.953125 -1.875 C 5.054688 -2.09375 5.109375 -2.34375 5.109375 -2.625 Z M 5.109375 -2.625 "/></g></g></g><g fill="#ea0909" fill-opacity="1"><g transform="translate(119.459454, 101.053336)"><g><path d="M 1.34375 -2.640625 C 1.34375 -2.367188 1.390625 -2.125 1.484375 -1.90625 C 1.585938 -1.6875 1.722656 -1.503906 1.890625 -1.359375 C 2.066406 -1.210938 2.269531 -1.101562 2.5 -1.03125 C 2.726562 -0.957031 2.972656 -0.921875 3.234375 -0.921875 C 3.492188 -0.921875 3.734375 -0.953125 3.953125 -1.015625 C 4.179688 -1.085938 4.378906 -1.191406 4.546875 -1.328125 C 4.710938 -1.460938 4.84375 -1.640625 4.9375 -1.859375 C 5.03125 -2.078125 5.078125 -2.332031 5.078125 -2.625 C 5.078125 -2.882812 5.03125 -3.117188 4.9375 -3.328125 C 4.84375 -3.546875 4.710938 -3.734375 4.546875 -3.890625 C 4.378906 -4.046875 4.179688 -4.164062 3.953125 -4.25 C 3.734375 -4.332031 3.492188 -4.375 3.234375 -4.375 C 2.972656 -4.375 2.726562 -4.335938 2.5 -4.265625 C 2.269531 -4.191406 2.066406 -4.078125 1.890625 -3.921875 C 1.722656 -3.773438 1.585938 -3.59375 1.484375 -3.375 C 1.390625 -3.15625 1.34375 -2.910156 1.34375 -2.640625 Z M 3.1875 0.921875 C 3.445312 0.921875 3.6875 0.890625 3.90625 0.828125 C 4.125 0.765625 4.316406 0.664062 4.484375 0.53125 C 4.648438 0.394531 4.785156 0.222656 4.890625 0.015625 C 4.992188 -0.191406 5.054688 -0.453125 5.078125 -0.765625 C 4.867188 -0.503906 4.597656 -0.304688 4.265625 -0.171875 C 3.929688 -0.046875 3.570312 0.015625 3.1875 0.015625 C 2.75 0.015625 2.347656 -0.046875 1.984375 -0.171875 C 1.628906 -0.296875 1.328125 -0.472656 1.078125 -0.703125 C 0.828125 -0.941406 0.632812 -1.222656 0.5 -1.546875 C 0.363281 -1.867188 0.296875 -2.234375 0.296875 -2.640625 C 0.296875 -3.054688 0.367188 -3.429688 0.515625 -3.765625 C 0.660156 -4.109375 0.863281 -4.394531 1.125 -4.625 C 1.394531 -4.851562 1.707031 -5.03125 2.0625 -5.15625 C 2.414062 -5.289062 2.804688 -5.359375 3.234375 -5.359375 C 3.640625 -5.359375 4.019531 -5.289062 4.375 -5.15625 C 4.726562 -5.03125 5.035156 -4.84375 5.296875 -4.59375 C 5.554688 -4.351562 5.757812 -4.046875 5.90625 -3.671875 C 6.050781 -3.296875 6.125 -2.867188 6.125 -2.390625 L 6.125 -1.1875 C 6.125 -0.71875 6.0625 -0.300781 5.9375 0.0625 C 5.820312 0.4375 5.640625 0.757812 5.390625 1.03125 C 5.140625 1.300781 4.832031 1.507812 4.46875 1.65625 C 4.101562 1.800781 3.675781 1.875 3.1875 1.875 C 2.957031 1.875 2.71875 1.851562 2.46875 1.8125 C 2.21875 1.769531 1.972656 1.695312 1.734375 1.59375 C 1.492188 1.488281 1.265625 1.347656 1.046875 1.171875 C 0.835938 0.992188 0.648438 0.765625 0.484375 0.484375 L 1.359375 0.046875 C 1.609375 0.378906 1.875 0.609375 2.15625 0.734375 C 2.445312 0.859375 2.789062 0.921875 3.1875 0.921875 Z M 3.1875 0.921875 "/></g></g></g><g fill="#ea0909" fill-opacity="1"><g transform="translate(126.119654, 101.053336)"><g><path d="M 1.625 -5.25 L 1.625 0 L 0.59375 0 L 0.59375 -5.25 Z M 1.625 -7.0625 L 1.625 -6 L 0.59375 -6 L 0.59375 -7.0625 Z M 1.625 -7.0625 "/></g></g></g><g fill="#ea0909" fill-opacity="1"><g transform="translate(128.335751, 101.053336)"><g><path d="M 5.109375 -0.671875 C 4.898438 -0.441406 4.625 -0.253906 4.28125 -0.109375 C 3.9375 0.0351562 3.566406 0.109375 3.171875 0.109375 C 2.742188 0.109375 2.351562 0.046875 2 -0.078125 C 1.65625 -0.210938 1.351562 -0.398438 1.09375 -0.640625 C 0.84375 -0.890625 0.644531 -1.179688 0.5 -1.515625 C 0.363281 -1.847656 0.296875 -2.21875 0.296875 -2.625 C 0.296875 -3.039062 0.367188 -3.414062 0.515625 -3.75 C 0.660156 -4.09375 0.863281 -4.378906 1.125 -4.609375 C 1.394531 -4.847656 1.707031 -5.03125 2.0625 -5.15625 C 2.414062 -5.289062 2.796875 -5.359375 3.203125 -5.359375 C 3.617188 -5.359375 4.003906 -5.289062 4.359375 -5.15625 C 4.722656 -5.03125 5.035156 -4.84375 5.296875 -4.59375 C 5.554688 -4.351562 5.757812 -4.046875 5.90625 -3.671875 C 6.050781 -3.304688 6.125 -2.878906 6.125 -2.390625 L 6.125 0 L 5.109375 0 Z M 1.34375 -2.625 C 1.34375 -2.34375 1.390625 -2.09375 1.484375 -1.875 C 1.585938 -1.65625 1.722656 -1.46875 1.890625 -1.3125 C 2.054688 -1.164062 2.25 -1.054688 2.46875 -0.984375 C 2.695312 -0.910156 2.941406 -0.875 3.203125 -0.875 C 3.460938 -0.875 3.707031 -0.90625 3.9375 -0.96875 C 4.164062 -1.039062 4.363281 -1.148438 4.53125 -1.296875 C 4.695312 -1.453125 4.828125 -1.640625 4.921875 -1.859375 C 5.023438 -2.078125 5.078125 -2.332031 5.078125 -2.625 C 5.078125 -2.882812 5.023438 -3.117188 4.921875 -3.328125 C 4.828125 -3.546875 4.695312 -3.734375 4.53125 -3.890625 C 4.363281 -4.046875 4.164062 -4.164062 3.9375 -4.25 C 3.707031 -4.332031 3.460938 -4.375 3.203125 -4.375 C 2.941406 -4.375 2.695312 -4.332031 2.46875 -4.25 C 2.25 -4.175781 2.054688 -4.066406 1.890625 -3.921875 C 1.722656 -3.773438 1.585938 -3.59375 1.484375 -3.375 C 1.390625 -3.15625 1.34375 -2.90625 1.34375 -2.625 Z M 1.34375 -2.625 "/></g></g></g></svg>